<svg width="816" height="122" xmlns="http://www.w3.org/2000/svg"><g fill="#f5f2ea" fill-rule="nonzero"><path d="M420.1 51.7c-.5-.1-.9-.1-1.4-.2-20.1-5.9-41.8-7.8-62.7-9.3-21.2-1.6-42.5-1.6-63.6 1-1 .1-1.9.2-2.9.4-.2-3.3-1.3-6.5-3.7-9.3-3.9-4.6-9.7-6.1-15.5-6.2-3.8-.8-7.8-1-11.6-1-18.6-.1-36.6 5.7-53.6 12.8-17.2 7.1-33.8 15.8-51.8 20.9-12.2 3.4-39.4 8.9-43.4-9.2-2.2-10.2 5.8-19.1 13.8-24 3.7-2.3 7.9-4.2 12.3-4.4 2.1-.1 4 .3 5.7 1.1 1.2 1.1 2.7 2.1 3.6 3.4.7 1 1.3 2.2 1.1 3.5v.2h-.6c-.2-.1-.7-.3-1.1-.4-.5-.4-.4-.3.3.1-4.1-4.1-10.9-1-11 4.6-.2 5.6 4.9 10.2 10.4 10 2.7-.1 5.5-1 7.2-3 .7-.7 1.2-1.5 1.5-2.4 0 0 0-.1.1-.3.6-1.3 1-2.3 1.1-3.7.3-3.8-1.1-7.7-3.7-10.6-.8-.9-1.7-1.8-2.8-2.7-9.3-9.2-25.3-2.6-34.4 5.3-6.5 5.6-11.5 14.2-11 23 .5 8.2 5.9 14.9 13.2 18.3 4.6 2.1 9.6 3.1 14.8 3.3-7.3 1.8-15 3.2-22.4 1.7-3.6-.7-7.2-2.3-10.3-4.1-3.1-1.8-5.4-4.5-8.4-6.4-2.8-1.8-6.1 1.2-5.4 4.1 1.8 7.5 11 12 18 13.2 9.8 1.7 19.8-.7 29.2-3.3 9.8-2.7 19.5-6 28.9-9.7 4.2-1.6 8.3-3.4 12.4-5.3 5.1-2 10.2-4.3 15.2-6.6-14.2 8.5-27.9 17.7-42.2 26-17.2 9.9-35.5 17.9-55 22.2-14.5 3.2-37.9 4.9-38.5-15.6-.7-23.1 22.9-42.9 13.5-66.5-5.9-14.7-24.3-24-39.2-18.4-6.4.6-13.1 4.9-17.2 8.9-6.2 6-9.3 14.6-4.9 22.6 4.4 8 15.7 7.7 20-.1 2.5-4.6 1.8-10.4-3.1-13.3-2.8-1.6-6.3-1.9-9.2-.8 1-1.8 2.3-3.4 3.7-4.8 3.3-3.3 7.1-4.9 11-6.6 16.1-3.6 33.7 8.3 31.4 26-1.4 11.2-8.3 21.1-12.6 31.3-3.6 8.5-5.8 17.9-4.4 27.1 1.2 7.7 4.9 13.3 10.1 17-3.7-.7-7.3-1.7-10.7-2.8-6.4-2.2-14.4-6.1-17.8-12.3-1.5-2.8-2.2-6.2-1.6-9.3.6-3.1 2.6-5.1 4.1-7.7 1.7-2.9-1.1-6.8-4.4-5.8-8 2.4-10.7 13.1-8.6 20.5 2.5 8.4 10.1 14.8 18 18 4.6 1.9 10 2.7 14.9 3.8 4.5 1 9.1 1.8 13.8 2.1 4.5.4 9.4.4 14.1-.4 2.2 0 4.3-.1 6.4-.4 17.7-2.2 35.2-9.3 51.2-17 41.7-20 76.1-54.7 122.9-63.2 6.5-1.2 17.8-4.4 23.7.1 2.9 2.2 3.2 5.2 2.3 8.2-32.3 5.7-62.6 17.6-88.9 38-6.9 5.4-13.9 12.6-13.1 22 .6 8 7.7 17.2 16.6 13.7 4.8-1.9 4-8.4-1.2-8.9-2.7-.3-5-1.9-6.2-4.3-1.9-3.9.5-8.2 2.9-11.2 4.9-6.2 11.9-11 18.4-15.3 13.8-9.1 28.9-16 44.5-21.1 2-.6 4-1.3 5.9-1.8-.6.3-1.2.5-1.8.8-5.2 2.5-10.3 5.4-15.3 8.2-4.8 2.7-9.8 5.6-13.5 9.7-6 6.7-8.2 19.2.9 24.3 6.8 3.7 12.7-6.4 6.1-10.4-15.1-9 26.8-29.2 33.4-31.9 1.4-.6 2.8-1.1 4.2-1.7-.9.9-1.8 1.7-2.6 2.3-7.9 6.2-16.3 13.7-16.3 24.7 0 10.5 7.7 19.1 17.3 22.6 12.1 4.4 25.5-.3 36.2-6.4l34.5-19.8c24-13.7 50.4-24.5 78.5-24.1 1.5-.2 2-2.7.3-3zM16.6 36.1s.1 0 .1-.1c0 .1-.1.1-.1.1zm251.8 44.2c.5-2.7 2.3-5 4.2-7 .2 5.5 2.4 10.8 7.5 15 2.4 1.9 4.9 3.4 7.6 4.3-.7.1-1.5.2-2.2.2-6.7.5-18.7-3.6-17.1-12.5zm52-.4c-4.4 2.2-9 4.6-13.8 6.8-7.1 2.1-14.2 2.8-21.4-1.1-6.4-3.4-9.4-9.6-8.6-16.5 2.9-3 5.8-6.1 8.1-9.5 1.9-2.9 3.5-6.2 4.3-9.7 1.4-.4 2.8-.7 4.3-1.1 20.8-2.7 41.9-2.8 62.8-1.4 12.3.8 24.6 2.6 36.9 4.1-13.9 2.1-27.3 7.1-40.4 12.9-10.9 4.9-21.6 10.2-32.2 15.5z"/><path d="M396.2 54.5c28.1-.4 54.5 10.5 78.5 24.1l34.5 19.8c10.6 6.1 24 10.8 36.2 6.4 9.6-3.5 17.3-12.1 17.3-22.6 0-10.9-8.4-18.5-16.3-24.7-.8-.6-1.7-1.4-2.6-2.3 1.4.5 2.8 1.1 4.2 1.7 6.6 2.7 48.4 22.8 33.4 31.9-6.6 4-.7 14.1 6.1 10.4 9.1-5 6.9-17.6.9-24.3-3.7-4.1-8.8-7-13.5-9.7-5-2.9-10.1-5.7-15.3-8.2-.6-.3-1.2-.6-1.8-.8 2 .6 4 1.2 5.9 1.8 15.7 5.1 30.7 12 44.5 21.1 6.5 4.3 13.5 9.1 18.4 15.3 2.4 3.1 4.8 7.4 2.9 11.2-1.2 2.4-3.5 4-6.2 4.3-5.2.5-6 7-1.2 8.9 8.9 3.5 15.9-5.7 16.6-13.7.7-9.4-6.2-16.6-13.1-22-26.3-20.4-56.6-32.3-88.9-38-1-3-.6-6 2.3-8.2 5.9-4.5 17.1-1.3 23.7-.1 46.8 8.5 81.2 43.2 122.9 63.2 16 7.7 33.4 14.9 51.2 17 2.1.3 4.3.4 6.4.4 4.7.8 9.6.8 14.1.4 4.6-.4 9.2-1.1 13.8-2.1 4.9-1.1 10.2-1.9 14.9-3.8 7.9-3.2 15.5-9.6 18-18 2.2-7.3-.5-18-8.6-20.5-3.3-1-6.1 2.9-4.4 5.8 1.5 2.6 3.5 4.6 4.1 7.7.6 3.2 0 6.5-1.6 9.3-3.3 6.1-11.4 10.1-17.8 12.3-3.4 1.2-7.1 2.1-10.7 2.8 5.2-3.7 8.9-9.3 10.1-17 1.4-9.2-.8-18.6-4.4-27.1-4.4-10.2-11.2-20-12.6-31.3-2.3-17.7 15.4-29.6 31.4-26 3.9 1.7 7.7 3.3 11 6.6 1.4 1.4 2.7 3 3.7 4.8-2.9-1.2-6.5-.9-9.2.8-5 2.9-5.7 8.8-3.1 13.3 4.4 7.9 15.6 8.2 20 .1 4.4-8 1.3-16.6-4.9-22.6-4.1-4-10.8-8.3-17.2-8.9-14.9-5.6-33.3 3.7-39.2 18.4-9.4 23.6 14.2 43.4 13.5 66.5-.6 20.6-24 18.8-38.5 15.6-19.5-4.3-37.8-12.3-55-22.2-14.3-8.3-28.1-17.5-42.2-26 5 2.3 10.1 4.5 15.2 6.6 4.1 1.9 8.3 3.6 12.4 5.3 9.5 3.7 19.1 7 28.9 9.7 9.4 2.6 19.4 5 29.2 3.3 7-1.2 16.1-5.8 18-13.2.7-3-2.6-5.9-5.4-4.1-3 1.9-5.3 4.6-8.4 6.4-3.2 1.9-6.7 3.4-10.3 4.1-7.4 1.5-15.1.2-22.4-1.7 5.1-.2 10.1-1.2 14.8-3.3 7.3-3.4 12.8-10.1 13.2-18.3.5-8.9-4.5-17.4-11-23-9.1-7.9-25.1-14.5-34.4-5.3-1.1.9-2 1.8-2.8 2.7-2.5 2.9-3.9 6.8-3.7 10.6.1 1.4.5 2.5 1.1 3.7.1.2.1.3.1.3.3.9.8 1.7 1.5 2.4 1.8 2 4.6 2.9 7.2 3 5.5.1 10.6-4.5 10.4-10-.2-5.5-7-8.6-11-4.6.7-.4.7-.4.3-.1-.4.1-.8.3-1.1.4h-.5-.1V31c-.2-1.3.4-2.5 1.1-3.5 1-1.3 2.4-2.2 3.6-3.4 1.7-.7 3.5-1.2 5.7-1.1 4.4.1 8.6 2 12.3 4.4 8 5 16 13.9 13.8 24-4 18.1-31.2 12.6-43.4 9.2-18-5-34.6-13.7-51.8-20.9-17-7.1-35-12.9-53.6-12.8-3.7 0-7.7.2-11.6 1-5.8.2-11.6 1.6-15.5 6.2-2.3 2.8-3.4 6-3.7 9.3-1-.1-1.9-.3-2.9-.4-21.1-2.6-42.4-2.5-63.6-1-20.8 1.5-42.5 3.4-62.7 9.3-.5.1-.9.1-1.4.2-1.7.5-1.2 3 .3 3zm134.3 38.4c-.7 0-1.5-.1-2.2-.2 2.7-1 5.2-2.4 7.6-4.3 5.1-4.2 7.3-9.5 7.5-15 1.9 2 3.7 4.3 4.2 7 1.6 8.8-10.4 12.9-17.1 12.5zm-67.1-28.4c-13.2-5.8-26.6-10.8-40.4-12.9 12.3-1.5 24.6-3.3 36.9-4.1 20.9-1.4 42.1-1.3 62.8 1.4 1.4.3 2.8.7 4.3 1.1.8 3.5 2.4 6.8 4.3 9.7 2.3 3.5 5.2 6.5 8.1 9.5.8 6.9-2.2 13.1-8.6 16.5-7.2 3.8-14.3 3.1-21.4 1.1-4.8-2.2-9.4-4.6-13.8-6.8-10.6-5.4-21.3-10.7-32.2-15.5z"/></g></svg>
